<svg width="60" height="60" viewBox="0 0 60 60" fill="none" xmlns="http://www.w3.org/2000/svg">
<circle cx="30" cy="30" r="30" fill="white"/>
<path d="M21.5 22.5C21.5 22.5 25 19 30 19C38 19 42 26 42 31C42 36.5 38 43 30 43C22 43 18 36 18 31" stroke="black" stroke-width="3" stroke-linecap="round"/>
<path d="M21.597 18.0044C21.5994 17.176 20.9298 16.5024 20.1014 16.5C19.273 16.4976 18.5995 17.1672 18.597 17.9956L21.597 18.0044ZM20.079 24.176L18.579 24.1716C18.5766 25 19.2462 25.6736 20.0747 25.676L20.079 24.176ZM21.623 24.1805L21.6187 25.6805L21.6187 25.6805L21.623 24.1805ZM23.167 24.185L23.1627 25.685L23.1627 25.685L23.167 24.185ZM24.711 24.1895L24.7066 25.6895L24.7066 25.6895L24.711 24.1895ZM26.2506 25.694C27.0791 25.6964 27.7526 25.0268 27.755 24.1983C27.7574 23.3699 27.0878 22.6964 26.2594 22.694L26.2506 25.694ZM18.597 17.9956L18.579 24.1716L21.579 24.1803L21.597 18.0044L18.597 17.9956ZM20.0747 25.676L21.6187 25.6805L21.6274 22.6805L20.0834 22.676L20.0747 25.676ZM21.6187 25.6805L23.1627 25.685L23.1714 22.685L21.6274 22.6805L21.6187 25.6805ZM23.1627 25.685L24.7066 25.6895L24.7154 22.6895L23.1714 22.685L23.1627 25.685ZM24.7066 25.6895L26.2506 25.694L26.2594 22.694L24.7154 22.6895L24.7066 25.6895Z" fill="black"/>
</svg>
